<?xml version="1.0" encoding="UTF-8" standalone="no"?>
<svg xmlns:dc="http://purl.org/dc/elements/1.1/" xmlns:cc="http://creativecommons.org/ns#" xmlns:rdf="http://www.w3.org/1999/02/22-rdf-syntax-ns#" xmlns:svg="http://www.w3.org/2000/svg" xmlns="http://www.w3.org/2000/svg" xmlns:sodipodi="http://sodipodi.sourceforge.net/DTD/sodipodi-0.dtd" xmlns:inkscape="http://www.inkscape.org/namespaces/inkscape" sodipodi:docname="ems-logo.svg" inkscape:version="1.0 (4035a4fb49, 2020-05-01)" id="svg8" version="1.1" viewBox="0 0 81.543366 33.866669" height="33.866669mm" width="81.543365mm">
  <defs id="defs2"></defs>
  <metadata id="metadata5"></metadata>
  <g transform="translate(-61.880846,-28.041958)" id="layer1" inkscape:groupmode="layer" inkscape:label="Layer 1">
    <g style="font-style:normal;font-weight:normal;font-size:11.5006px;line-height:1.025;font-family:sans-serif;letter-spacing:-0.460375px;fill:#000000;fill-opacity:1;stroke:none;stroke-width:0.264583" id="text835" aria-label="Edinburgh Mathematical Society">
      <path id="path887" style="font-style:normal;font-variant:normal;font-weight:normal;font-stretch:normal;font-size:11.6858px;font-family:'Baskerville Small Caps SSi';-inkscape-font-specification:'Baskerville Small Caps SSi, Normal';font-variant-ligatures:normal;font-variant-caps:normal;font-variant-numeric:normal;font-variant-east-asian:normal;letter-spacing:-0.460375px;stroke-width:0.264583" d="m 69.637717,34.359614 v -3.263808 q 0,-1.249604 -0.119825,-1.563432 -0.102708,-0.273886 -0.35377,-0.336651 -0.245356,-0.06277 -0.650479,-0.06277 v -0.325239 h 5.808664 v 1.785964 h -0.26818 q -0.108413,-0.667597 -0.353769,-0.975719 -0.23965,-0.313827 -0.627655,-0.399417 -0.382299,-0.08559 -1.084132,-0.08559 h -0.844482 q -0.21112,0 -0.256768,0.02853 -0.04565,0.02282 -0.04565,0.159767 v 0.291003 2.795919 q 0.770304,0 1.169721,-0.176884 0.399417,-0.182591 0.547772,-0.490713 0.148354,-0.308121 0.188296,-0.781716 h 0.26818 q -0.02282,1.07272 -0.04565,1.60908 0.02282,0.4793 0.04565,1.460725 h -0.26818 q -0.08559,-0.599125 -0.313828,-0.873011 -0.222532,-0.279592 -0.576301,-0.348064 -0.353769,-0.07418 -1.01566,-0.07418 v 1.928613 q 0,0.410829 0.03423,0.701833 0.03424,0.291004 0.176885,0.490712 0.142649,0.194003 0.393711,0.291004 0.256768,0.097 0.50783,0.119825 0.256768,0.02282 0.59342,0.02282 0.496418,-0.01141 0.861599,-0.06847 0.370887,-0.05706 0.633361,-0.21112 0.26818,-0.159767 0.439359,-0.4793 0.176885,-0.32524 0.228238,-0.83307 h 0.26818 l -0.108413,1.90579 h -6.356436 v -0.26818 q 0.405123,0 0.656185,-0.06847 0.251062,-0.06847 0.348064,-0.342357 0.119825,-0.313828 0.119825,-1.563432 z"></path>
      <path id="path889" style="font-style:normal;font-variant:normal;font-weight:normal;font-stretch:normal;font-size:11.6858px;font-family:'Baskerville Small Caps SSi';-inkscape-font-specification:'Baskerville Small Caps SSi, Normal';font-variant-ligatures:normal;font-variant-caps:normal;font-variant-numeric:normal;font-variant-east-asian:normal;letter-spacing:-0.460375px;stroke-width:0.264583" d="m 76.366847,35.272567 v -2.818743 q 0,-0.473594 -0.05135,-0.696127 -0.04565,-0.222532 -0.23965,-0.319533 -0.188297,-0.097 -0.62195,-0.097 v -0.245356 q 0.890129,0.02282 1.329488,0.02282 0.29671,0 0.867306,-0.01141 0.570595,-0.01141 0.793128,-0.01141 0.71895,0 1.300958,0.194003 0.587713,0.194002 1.009954,0.559184 0.422241,0.365181 0.644773,0.884423 0.222533,0.513536 0.222533,1.158309 0,1.278134 -0.873012,2.008497 -0.867305,0.724656 -2.305206,0.724656 -0.256768,0 -0.416535,-0.0057 -0.154061,-0.0057 -0.313828,-0.01141 -0.159767,0 -0.353769,-0.0057 -0.194003,0 -0.467889,0 -0.4793,0 -1.437901,0.02282 v -0.233944 q 0.433653,0 0.62195,-0.097 0.194002,-0.097 0.23965,-0.319534 0.05135,-0.222532 0.05135,-0.701832 z m 1.049896,-3.646107 v 3.982758 q 0,0.456477 0.26818,0.621949 0.273886,0.159767 0.758893,0.159767 1.118367,0 1.546314,-0.587713 0.427947,-0.587714 0.427947,-1.763141 0,-0.793128 -0.216827,-1.397959 -0.216826,-0.610538 -0.71895,-0.952895 -0.496418,-0.348064 -1.295252,-0.348064 -0.559184,0 -0.667597,0.03994 -0.102708,0.03424 -0.102708,0.245356 z"></path>
      <path id="path891" style="font-style:normal;font-variant:normal;font-weight:normal;font-stretch:normal;font-size:11.6858px;font-family:'Baskerville Small Caps SSi';-inkscape-font-specification:'Baskerville Small Caps SSi, Normal';font-variant-ligatures:normal;font-variant-caps:normal;font-variant-numeric:normal;font-variant-east-asian:normal;letter-spacing:-0.460375px;stroke-width:0.264583" d="m 84.157286,32.453824 v 2.818743 q 0,0.50783 0.04565,0.713244 0.04565,0.205415 0.233944,0.308122 0.194003,0.097 0.633362,0.097 v 0.233944 q -0.958601,-0.02282 -1.437901,-0.02282 -0.479301,0 -1.437902,0.02282 v -0.233944 q 0.439359,0 0.627656,-0.097 0.194002,-0.102707 0.23965,-0.308122 0.04565,-0.205414 0.04565,-0.713244 v -2.818743 q 0,-0.502124 -0.04565,-0.707539 -0.04565,-0.21112 -0.23965,-0.308121 -0.188297,-0.097 -0.627656,-0.097 v -0.245356 q 0.958601,0.02282 1.437902,0.02282 0.4793,0 1.437901,-0.02282 v 0.245356 q -0.439359,0 -0.633362,0.097 -0.188296,0.097 -0.233944,0.308121 -0.04565,0.205415 -0.04565,0.707539 z"></path>
      <path id="path893" style="font-style:normal;font-variant:normal;font-weight:normal;font-stretch:normal;font-size:11.6858px;font-family:'Baskerville Small Caps SSi';-inkscape-font-specification:'Baskerville Small Caps SSi, Normal';font-variant-ligatures:normal;font-variant-caps:normal;font-variant-numeric:normal;font-variant-east-asian:normal;letter-spacing:-0.460375px;stroke-width:0.264583" d="m 90.966299,32.419588 v 4.336527 h -0.348063 l -3.811579,-4.570471 h -0.02282 v 3.121158 q 0,0.473595 0.07988,0.707539 0.07988,0.228238 0.273886,0.302416 0.194003,0.07418 0.616244,0.07418 v 0.233944 q -0.753187,-0.02282 -1.181133,-0.02282 -0.359476,0 -1.112662,0.02282 v -0.233944 q 0.422241,0 0.616243,-0.07418 0.194003,-0.07418 0.273886,-0.302416 0.07988,-0.233944 0.07988,-0.707539 v -3.566223 q -0.302416,-0.376593 -0.947189,-0.399417 v -0.245356 q 0.376593,0.02282 0.724656,0.02282 0.29671,0 0.947189,-0.02282 l 3.434986,4.222408 h 0.02853 v -2.898626 q 0,-0.473594 -0.07988,-0.701832 -0.07988,-0.228239 -0.285298,-0.302416 -0.199709,-0.07418 -0.604832,-0.07418 v -0.245356 q 0.741775,0.02282 1.106956,0.02282 0.416535,0 1.192545,-0.02282 v 0.245356 q -0.410829,0 -0.616243,0.07418 -0.205415,0.07418 -0.285298,0.302416 -0.07988,0.228238 -0.07988,0.701832 z"></path>
      <path id="path895" style="font-style:normal;font-variant:normal;font-weight:normal;font-stretch:normal;font-size:11.6858px;font-family:'Baskerville Small Caps SSi';-inkscape-font-specification:'Baskerville Small Caps SSi, Normal';font-variant-ligatures:normal;font-variant-caps:normal;font-variant-numeric:normal;font-variant-east-asian:normal;letter-spacing:-0.460375px;stroke-width:0.264583" d="m 94.306092,31.552283 v 1.803082 q 0,0.159767 0.08559,0.194003 0.09129,0.02853 0.4793,0.02853 1.226781,0 1.226781,-1.135485 0,-0.582008 -0.325239,-0.838776 -0.319534,-0.262474 -0.952895,-0.262474 -0.359475,0 -0.439359,0.03424 -0.07418,0.02853 -0.07418,0.176885 z m -1.049896,3.720284 v -2.818743 q 0,-0.502124 -0.04565,-0.707539 -0.04565,-0.21112 -0.23965,-0.308121 -0.188297,-0.097 -0.627655,-0.097 v -0.245356 q 0.844481,0.02282 1.437901,0.02282 0.256768,0 0.71895,-0.01141 0.462183,-0.01141 0.639067,-0.01141 0.530654,0 0.987131,0.142649 0.456476,0.136943 0.736068,0.427947 0.285298,0.285298 0.285298,0.696127 0,0.393711 -0.256768,0.656185 -0.251062,0.256768 -0.559184,0.376593 -0.302415,0.119825 -0.724656,0.228238 v 0.02282 q 0.513536,0.07418 0.935777,0.194002 0.422241,0.119826 0.781716,0.439359 0.359475,0.319534 0.359475,0.873012 0,0.781716 -0.587713,1.129779 -0.582008,0.342357 -1.700376,0.342357 -0.199708,0 -0.741774,-0.01141 -0.542066,-0.01141 -0.873011,-0.01141 -0.59342,0 -1.437901,0.02282 v -0.233944 q 0.439358,0 0.627655,-0.097 0.194002,-0.102707 0.23965,-0.308122 0.04565,-0.205414 0.04565,-0.713244 z m 1.049896,-1.266723 v 1.768847 q 0,0.353769 0.216826,0.485006 0.222532,0.131237 0.673303,0.131237 0.639067,0 0.975719,-0.285298 0.342357,-0.285297 0.342357,-0.941483 0,-0.753186 -0.439359,-1.04419 -0.439358,-0.296709 -1.403665,-0.296709 -0.251062,0 -0.308122,0.02853 -0.05706,0.02282 -0.05706,0.154061 z"></path>
      <path id="path897" style="font-style:normal;font-variant:normal;font-weight:normal;font-stretch:normal;font-size:11.6858px;font-family:'Baskerville Small Caps SSi';-inkscape-font-specification:'Baskerville Small Caps SSi, Normal';font-variant-ligatures:normal;font-variant-caps:normal;font-variant-numeric:normal;font-variant-east-asian:normal;letter-spacing:-0.460375px;stroke-width:0.264583" d="m 98.869813,34.87315 v -2.419326 q 0,-0.502124 -0.04565,-0.707539 -0.04565,-0.21112 -0.23965,-0.308121 -0.188297,-0.097 -0.627655,-0.097 v -0.245356 q 0.9586,0.02282 1.437901,0.02282 0.4793,0 1.437899,-0.02282 v 0.245356 q -0.43936,0 -0.63336,0.097 -0.1883,0.097 -0.233943,0.308121 -0.04565,0.205415 -0.04565,0.707539 v 2.430738 q 0,0.713244 0.353771,1.118367 0.35377,0.399417 1.15831,0.399417 1.71749,0 1.71749,-1.808788 v -2.17397 q 0,-0.473594 -0.0799,-0.701832 -0.0799,-0.228239 -0.2853,-0.302416 -0.19971,-0.07418 -0.60483,-0.07418 v -0.245356 q 0.74177,0.02282 1.10695,0.02282 0.42795,0 1.18114,-0.02282 v 0.245356 q -0.40513,0 -0.61054,0.07418 -0.19971,0.07418 -0.27959,0.302416 -0.0799,0.228238 -0.0799,0.701832 v 2.11691 q 0,1.112662 -0.54777,1.66614 -0.54777,0.553477 -1.74031,0.553477 -2.339447,0 -2.339447,-1.882965 z"></path>
      <path id="path899" style="font-style:normal;font-variant:normal;font-weight:normal;font-stretch:normal;font-size:11.6858px;font-family:'Baskerville Small Caps SSi';-inkscape-font-specification:'Baskerville Small Caps SSi, Normal';font-variant-ligatures:normal;font-variant-caps:normal;font-variant-numeric:normal;font-variant-east-asian:normal;letter-spacing:-0.460375px;stroke-width:0.264583" d="m 105.64744,35.272567 v -2.818743 q 0,-0.502124 -0.0456,-0.707539 -0.0456,-0.21112 -0.23965,-0.308121 -0.1883,-0.097 -0.62195,-0.097 v -0.245356 q 0.9586,0.02282 1.4379,0.02282 0.25106,0 0.74748,-0.01141 0.49642,-0.01141 0.73607,-0.01141 0.99854,0 1.60908,0.336652 0.61053,0.330945 0.61053,1.067014 0,0.564889 -0.45647,0.9586 -0.45648,0.393711 -1.21537,0.445065 l 1.50637,1.797376 q 0.30242,0.365182 0.53065,0.530654 0.22824,0.159767 0.59342,0.159767 v 0.233944 q -0.53636,-0.02282 -0.82165,-0.02282 -0.26818,0 -0.82737,0.02282 l -1.77455,-2.185381 q -0.16547,-0.199709 -0.27959,-0.245356 -0.11412,-0.04565 -0.43366,-0.04565 v 1.124074 q 0,0.50783 0.0456,0.713244 0.0457,0.205415 0.23395,0.308122 0.194,0.097 0.63336,0.097 v 0.233944 q -0.9586,-0.02282 -1.4379,-0.02282 -0.4793,0 -1.4379,0.02282 v -0.233944 q 0.43365,0 0.62195,-0.097 0.194,-0.102707 0.23965,-0.308122 0.0456,-0.205414 0.0456,-0.713244 z m 1.0556,-3.69746 v 2.305206 h 0.40513 q 0.7703,0 1.16972,-0.330945 0.39942,-0.336652 0.39942,-0.918659 0,-0.633362 -0.35377,-0.958601 -0.35377,-0.330946 -1.02708,-0.330946 -0.28529,0 -0.43935,0.03994 -0.15407,0.03424 -0.15407,0.194003 z"></path>
      <path id="path901" style="font-style:normal;font-variant:normal;font-weight:normal;font-stretch:normal;font-size:11.6858px;font-family:'Baskerville Small Caps SSi';-inkscape-font-specification:'Baskerville Small Caps SSi, Normal';font-variant-ligatures:normal;font-variant-caps:normal;font-variant-numeric:normal;font-variant-east-asian:normal;letter-spacing:-0.460375px;stroke-width:0.264583" d="m 115.77162,31.41534 0.15406,-0.29671 h 0.11412 l 0.13123,1.660434 h -0.18829 q -0.12553,-0.490713 -0.3766,-0.838776 -0.25106,-0.348064 -0.62765,-0.542066 -0.37659,-0.194003 -0.85589,-0.194003 -0.70184,0 -1.1469,0.3823 -0.44507,0.382299 -0.63336,0.98713 -0.18259,0.604831 -0.18259,1.306664 0,0.724657 0.17688,1.31237 0.17689,0.587714 0.61054,0.958601 0.43365,0.370887 1.14119,0.370887 0.74177,0 1.07843,-0.365181 0.33665,-0.370887 0.33665,-0.873011 0,-0.393711 -0.19971,-0.547772 -0.19971,-0.154061 -0.62766,-0.154061 v -0.233944 h 2.63045 v 0.233944 q -0.41654,0 -0.58771,0.114119 -0.16548,0.108413 -0.16548,0.456477 v 0.935776 q -0.34235,0.01712 -0.61624,0.108414 -0.26818,0.08559 -0.63907,0.245356 -0.37088,0.154061 -0.69612,0.233944 -0.32524,0.07988 -0.74748,0.07988 -0.9529,0 -1.60338,-0.336651 -0.64477,-0.336651 -0.97001,-0.981425 -0.32524,-0.644773 -0.32524,-1.569138 0,-0.861599 0.3823,-1.517784 0.3823,-0.661891 1.07272,-1.021367 0.69612,-0.359475 1.58625,-0.359475 0.90155,0 1.77456,0.445065 z"></path>
      <path id="path903" style="font-style:normal;font-variant:normal;font-weight:normal;font-stretch:normal;font-size:11.6858px;font-family:'Baskerville Small Caps SSi';-inkscape-font-specification:'Baskerville Small Caps SSi, Normal';font-variant-ligatures:normal;font-variant-caps:normal;font-variant-numeric:normal;font-variant-east-asian:normal;letter-spacing:-0.460375px;stroke-width:0.264583" d="m 119.43094,33.925961 v 1.346606 q 0,0.50783 0.0456,0.713244 0.0456,0.205415 0.23394,0.308122 0.19401,0.097 0.63337,0.097 v 0.233944 q -0.95861,-0.02282 -1.43791,-0.02282 -0.4793,0 -1.4379,0.02282 v -0.233944 q 0.43366,0 0.62195,-0.097 0.19401,-0.102707 0.23965,-0.308122 0.0456,-0.205414 0.0456,-0.713244 v -2.818743 q 0,-0.502124 -0.0456,-0.707539 -0.0456,-0.21112 -0.23965,-0.308121 -0.18829,-0.097 -0.62195,-0.097 v -0.245356 q 0.9586,0.02282 1.4379,0.02282 0.4793,0 1.43791,-0.02282 v 0.245356 q -0.43936,0 -0.63337,0.097 -0.18829,0.097 -0.23394,0.308121 -0.0456,0.205415 -0.0456,0.707539 v 1.146897 h 3.02416 v -1.146897 q 0,-0.502124 -0.0456,-0.707539 -0.0457,-0.21112 -0.23965,-0.308121 -0.18829,-0.097 -0.62765,-0.097 v -0.245356 q 0.9586,0.02282 1.4379,0.02282 0.4793,0 1.4379,-0.02282 v 0.245356 q -0.43365,0 -0.62766,0.097 -0.18829,0.097 -0.23394,0.308121 -0.0456,0.205415 -0.0456,0.707539 v 2.818743 q 0,0.50783 0.0456,0.713244 0.0457,0.205415 0.23394,0.308122 0.19401,0.097 0.62766,0.097 v 0.233944 q -0.9586,-0.02282 -1.4379,-0.02282 -0.4793,0 -1.4379,0.02282 v -0.233944 q 0.43936,0 0.62765,-0.097 0.194,-0.102707 0.23965,-0.308122 0.0456,-0.205414 0.0456,-0.713244 v -1.346606 z"></path>
      <path id="path905" style="font-style:normal;font-variant:normal;font-weight:normal;font-stretch:normal;font-size:11.6858px;font-family:'Baskerville Small Caps SSi';-inkscape-font-specification:'Baskerville Small Caps SSi, Normal';font-variant-ligatures:normal;font-variant-caps:normal;font-variant-numeric:normal;font-variant-east-asian:normal;letter-spacing:-0.460375px;stroke-width:0.264583" d="m 77.009813,42.945338 v 4.279467 q 0,0.604832 0.05706,0.83307 0.05706,0.228238 0.279592,0.313828 0.222533,0.07988 0.821658,0.125531 v 0.26818 q -0.462182,-0.01141 -0.821658,-0.02282 -0.359475,-0.01141 -0.930071,-0.02282 -0.593419,0.01141 -0.9586,0.02282 -0.365182,0.01141 -0.810246,0.02282 v -0.26818 q 0.599125,-0.04565 0.821658,-0.125531 0.222532,-0.08559 0.279591,-0.313828 0.05706,-0.228238 0.05706,-0.83307 v -5.152479 h -0.02282 l -1.329488,3.292337 q -0.165473,0.376594 -0.45077,1.038484 -0.279592,0.661891 -0.56489,1.323782 -0.279592,0.661891 -0.445065,1.038485 h -0.119825 l -2.841566,-6.693088 h -0.02282 v 4.975595 q 0,0.502124 0.08559,0.798834 0.08559,0.296709 0.330946,0.462182 0.245356,0.165473 0.707538,0.188297 v 0.26818 q -0.325239,-0.01141 -0.599125,-0.02282 -0.273886,-0.01141 -0.696127,-0.02282 -0.410829,0.01141 -0.667597,0.02282 -0.256768,0.01141 -0.559184,0.02282 v -0.26818 q 1.049896,0 1.049896,-1.07272 v -5.026948 q 0,-0.502124 -0.102707,-0.770304 -0.102707,-0.26818 -0.353769,-0.330946 -0.251062,-0.06847 -0.656185,-0.06847 v -0.279592 q 0.405123,0.02282 1.181133,0.04565 0.696127,-0.02282 1.078426,-0.04565 l 2.56768,6.05402 2.499209,-6.05402 q 0.348064,0.02282 1.10125,0.04565 0.741775,-0.02282 1.158309,-0.04565 v 0.291004 q -0.393711,0 -0.644773,0.06847 -0.245356,0.06847 -0.359475,0.330946 -0.119825,0.256768 -0.119825,1.306664 z"></path>
      <path id="path907" style="font-style:normal;font-variant:normal;font-weight:normal;font-stretch:normal;font-size:11.6858px;font-family:'Baskerville Small Caps SSi';-inkscape-font-specification:'Baskerville Small Caps SSi, Normal';font-variant-ligatures:normal;font-variant-caps:normal;font-variant-numeric:normal;font-variant-east-asian:normal;letter-spacing:-0.460375px;stroke-width:0.264583" d="m 81.079967,43.11081 h 0.342358 l 1.797376,4.427823 q 0.194003,0.485006 0.26818,0.639067 0.07988,0.154061 0.251062,0.256768 0.171179,0.097 0.496418,0.097 v 0.233945 q -0.878717,-0.02282 -1.318076,-0.02282 -0.439358,0 -1.295252,0.02282 v -0.233945 q 0.399417,0 0.582008,-0.04565 0.188296,-0.04565 0.188296,-0.222533 0,-0.165472 -0.097,-0.410828 l -0.405123,-1.07272 h -2.082674 l -0.148355,0.42224 q -0.148355,0.388006 -0.21112,0.576302 -0.05706,0.182591 -0.05706,0.342358 0,0.268179 0.205415,0.342357 0.21112,0.06847 0.553477,0.06847 v 0.233945 q -0.684714,-0.02282 -1.021366,-0.02282 -0.330945,0 -1.01566,0.02282 v -0.233945 q 0.399417,0 0.633361,-0.251062 0.23965,-0.251062 0.410829,-0.673303 0.176885,-0.427946 0.427947,-1.049896 z m -1.095543,3.355103 h 1.76314 l -0.850187,-2.162558 z"></path>
      <path id="path909" style="font-style:normal;font-variant:normal;font-weight:normal;font-stretch:normal;font-size:11.6858px;font-family:'Baskerville Small Caps SSi';-inkscape-font-specification:'Baskerville Small Caps SSi, Normal';font-variant-ligatures:normal;font-variant-caps:normal;font-variant-numeric:normal;font-variant-east-asian:normal;letter-spacing:-0.460375px;stroke-width:0.264583" d="m 87.443917,43.70423 v 3.708872 q 0,0.50783 0.04565,0.713244 0.04565,0.205415 0.233944,0.308122 0.194002,0.097 0.627655,0.097 v 0.233945 q -0.958601,-0.02282 -1.437901,-0.02282 -0.4793,0 -1.437901,0.02282 v -0.233945 q 0.439359,0 0.627655,-0.097 0.194003,-0.102707 0.23965,-0.308122 0.04565,-0.205414 0.04565,-0.713244 V 43.70423 q 0,-0.097 -0.07988,-0.125531 -0.07988,-0.03424 -0.256769,-0.03424 h -0.667596 q -0.639068,0 -0.895836,0.26818 -0.251062,0.26818 -0.285298,0.8616 h -0.233944 v -1.437902 q 2.111204,0.02282 2.944274,0.02282 0.844482,0 2.944274,-0.02282 v 1.437902 h -0.233945 q -0.03423,-0.59342 -0.291003,-0.8616 -0.251062,-0.26818 -0.884424,-0.26818 h -0.667597 q -0.171178,0 -0.256768,0.03424 -0.07988,0.02853 -0.07988,0.125531 z"></path>
      <path id="path911" style="font-style:normal;font-variant:normal;font-weight:normal;font-stretch:normal;font-size:11.6858px;font-family:'Baskerville Small Caps SSi';-inkscape-font-specification:'Baskerville Small Caps SSi, Normal';font-variant-ligatures:normal;font-variant-caps:normal;font-variant-numeric:normal;font-variant-east-asian:normal;letter-spacing:-0.460375px;stroke-width:0.264583" d="m 92.107491,46.066496 v 1.346606 q 0,0.50783 0.04565,0.713244 0.04565,0.205415 0.233945,0.308122 0.194002,0.097 0.633361,0.097 v 0.233945 q -0.958601,-0.02282 -1.437901,-0.02282 -0.479301,0 -1.437902,0.02282 v -0.233945 q 0.433653,0 0.62195,-0.097 0.194002,-0.102707 0.23965,-0.308122 0.04565,-0.205414 0.04565,-0.713244 v -2.818743 q 0,-0.502124 -0.04565,-0.707538 -0.04565,-0.211121 -0.23965,-0.308122 -0.188297,-0.097 -0.62195,-0.097 v -0.245357 q 0.958601,0.02282 1.437902,0.02282 0.4793,0 1.437901,-0.02282 v 0.245357 q -0.439359,0 -0.633361,0.097 -0.188297,0.097 -0.233945,0.308122 -0.04565,0.205414 -0.04565,0.707538 v 1.146898 h 3.024157 v -1.146898 q 0,-0.502124 -0.04565,-0.707538 -0.04565,-0.211121 -0.23965,-0.308122 -0.188297,-0.097 -0.627655,-0.097 v -0.245357 q 0.9586,0.02282 1.437901,0.02282 0.4793,0 1.437901,-0.02282 v 0.245357 q -0.433653,0 -0.627655,0.097 -0.188297,0.097 -0.233945,0.308122 -0.04565,0.205414 -0.04565,0.707538 v 2.818743 q 0,0.50783 0.04565,0.713244 0.04565,0.205415 0.233945,0.308122 0.194002,0.097 0.627655,0.097 v 0.233945 q -0.958601,-0.02282 -1.437901,-0.02282 -0.479301,0 -1.437901,0.02282 v -0.233945 q 0.439358,0 0.627655,-0.097 0.194002,-0.102707 0.23965,-0.308122 0.04565,-0.205414 0.04565,-0.713244 v -1.346606 z"></path>
      <path id="path913" style="font-style:normal;font-variant:normal;font-weight:normal;font-stretch:normal;font-size:11.6858px;font-family:'Baskerville Small Caps SSi';-inkscape-font-specification:'Baskerville Small Caps SSi, Normal';font-variant-ligatures:normal;font-variant-caps:normal;font-variant-numeric:normal;font-variant-east-asian:normal;letter-spacing:-0.460375px;stroke-width:0.264583" d="m 98.31738,47.413102 v -2.818743 q 0,-0.502124 -0.04565,-0.707538 -0.04565,-0.211121 -0.239651,-0.308122 -0.188296,-0.097 -0.627655,-0.097 v -0.245357 q 0.958601,0.02282 1.437901,0.02282 1.12978,0 3.286632,-0.02282 v 1.415078 h -0.19971 q -0.0685,-0.496418 -0.20541,-0.736069 -0.13124,-0.245356 -0.39371,-0.336651 -0.26248,-0.097 -0.74748,-0.097 h -1.004253 q -0.211121,0 -0.211121,0.15406 v 2.105499 q 0.553478,0 0.821654,-0.08559 0.27389,-0.08559 0.39372,-0.342357 0.12553,-0.256768 0.15406,-0.77601 h 0.23394 q -0.0228,0.810245 -0.0228,1.22678 0,0.393711 0.0228,1.238193 h -0.23394 q -0.0285,-0.450771 -0.14836,-0.661891 -0.11982,-0.21112 -0.39942,-0.279592 -0.273882,-0.07418 -0.821654,-0.07418 v 1.728905 q 0,0.45077 0.273886,0.633361 0.279592,0.18259 0.884428,0.18259 0.62194,0 0.9586,-0.07988 0.33665,-0.08559 0.54206,-0.359475 0.20542,-0.273886 0.29101,-0.83307 h 0.23394 l -0.0742,1.506373 q -2.38509,-0.02282 -3.634692,-0.02282 -0.4793,0 -1.437901,0.02282 v -0.233945 q 0.439359,0 0.627655,-0.097 0.194003,-0.102707 0.239651,-0.308122 0.04565,-0.205414 0.04565,-0.713244 z"></path>
      <path id="path915" style="font-style:normal;font-variant:normal;font-weight:normal;font-stretch:normal;font-size:11.6858px;font-family:'Baskerville Small Caps SSi';-inkscape-font-specification:'Baskerville Small Caps SSi, Normal';font-variant-ligatures:normal;font-variant-caps:normal;font-variant-numeric:normal;font-variant-east-asian:normal;letter-spacing:-0.460375px;stroke-width:0.264583" d="m 106.67841,47.384572 1.90579,-4.148231 q 0.68472,0.02282 1.00425,0.02282 0.27389,0 0.97001,-0.02282 v 0.245357 q -0.9586,0 -0.9586,0.855893 v 3.075511 q 0,0.50783 0.0456,0.713244 0.0456,0.205415 0.23394,0.308122 0.19401,0.097 0.63337,0.097 v 0.233945 q -0.95861,-0.02282 -1.43791,-0.02282 -0.4793,0 -1.4379,0.02282 v -0.233945 q 0.43936,0 0.62766,-0.097 0.194,-0.102707 0.23965,-0.308122 0.0456,-0.205414 0.0456,-0.713244 v -3.263807 h -0.0228 l -2.16256,4.547647 h -0.12553 l -2.11691,-4.638943 h -0.0228 v 3.389339 q 0,0.473594 0.0799,0.707538 0.0799,0.228239 0.27389,0.302416 0.194,0.07418 0.61624,0.07418 v 0.233945 q -0.75318,-0.02282 -1.18113,-0.02282 -0.35948,0 -1.11266,0.02282 v -0.233945 q 0.42224,0 0.61624,-0.07418 0.194,-0.07418 0.27389,-0.302416 0.0799,-0.233944 0.0799,-0.707538 v -3.109747 q 0,-0.855893 -0.94719,-0.855893 v -0.245357 q 0.68472,0.02282 0.9586,0.02282 0.32524,0 1.00996,-0.02282 z"></path>
      <path id="path917" style="font-style:normal;font-variant:normal;font-weight:normal;font-stretch:normal;font-size:11.6858px;font-family:'Baskerville Small Caps SSi';-inkscape-font-specification:'Baskerville Small Caps SSi, Normal';font-variant-ligatures:normal;font-variant-caps:normal;font-variant-numeric:normal;font-variant-east-asian:normal;letter-spacing:-0.460375px;stroke-width:0.264583" d="m 113.47031,43.11081 h 0.34236 l 1.79737,4.427823 q 0.19401,0.485006 0.26818,0.639067 0.0799,0.154061 0.25107,0.256768 0.17118,0.097 0.49642,0.097 v 0.233945 q -0.87872,-0.02282 -1.31808,-0.02282 -0.43936,0 -1.29525,0.02282 v -0.233945 q 0.39941,0 0.582,-0.04565 0.1883,-0.04565 0.1883,-0.222533 0,-0.165472 -0.097,-0.410828 l -0.40512,-1.07272 h -2.08268 l -0.14835,0.42224 q -0.14836,0.388006 -0.21112,0.576302 -0.0571,0.182591 -0.0571,0.342358 0,0.268179 0.20541,0.342357 0.21112,0.06847 0.55348,0.06847 v 0.233945 q -0.68471,-0.02282 -1.02137,-0.02282 -0.33094,0 -1.01566,0.02282 v -0.233945 q 0.39942,0 0.63336,-0.251062 0.23965,-0.251062 0.41083,-0.673303 0.17689,-0.427946 0.42795,-1.049896 z m -1.09554,3.355103 h 1.76314 l -0.85019,-2.162558 z"></path>
      <path id="path919" style="font-style:normal;font-variant:normal;font-weight:normal;font-stretch:normal;font-size:11.6858px;font-family:'Baskerville Small Caps SSi';-inkscape-font-specification:'Baskerville Small Caps SSi, Normal';font-variant-ligatures:normal;font-variant-caps:normal;font-variant-numeric:normal;font-variant-east-asian:normal;letter-spacing:-0.460375px;stroke-width:0.264583" d="m 119.83426,43.70423 v 3.708872 q 0,0.50783 0.0456,0.713244 0.0456,0.205415 0.23394,0.308122 0.194,0.097 0.62766,0.097 v 0.233945 q -0.9586,-0.02282 -1.43791,-0.02282 -0.4793,0 -1.4379,0.02282 v -0.233945 q 0.43936,0 0.62766,-0.097 0.194,-0.102707 0.23965,-0.308122 0.0457,-0.205414 0.0457,-0.713244 V 43.70423 q 0,-0.097 -0.0799,-0.125531 -0.0799,-0.03424 -0.25676,-0.03424 h -0.6676 q -0.63907,0 -0.89584,0.26818 -0.25106,0.26818 -0.28529,0.8616 h -0.23395 v -1.437902 q 2.11121,0.02282 2.94427,0.02282 0.84449,0 2.94428,-0.02282 v 1.437902 h -0.23395 q -0.0342,-0.59342 -0.291,-0.8616 -0.25106,-0.26818 -0.88442,-0.26818 h -0.6676 q -0.17118,0 -0.25677,0.03424 -0.0799,0.02853 -0.0799,0.125531 z"></path>
      <path id="path921" style="font-style:normal;font-variant:normal;font-weight:normal;font-stretch:normal;font-size:11.6858px;font-family:'Baskerville Small Caps SSi';-inkscape-font-specification:'Baskerville Small Caps SSi, Normal';font-variant-ligatures:normal;font-variant-caps:normal;font-variant-numeric:normal;font-variant-east-asian:normal;letter-spacing:-0.460375px;stroke-width:0.264583" d="m 124.57772,44.594359 v 2.818743 q 0,0.50783 0.0456,0.713244 0.0456,0.205415 0.23395,0.308122 0.194,0.097 0.63336,0.097 v 0.233945 q -0.9586,-0.02282 -1.4379,-0.02282 -0.4793,0 -1.4379,0.02282 v -0.233945 q 0.43936,0 0.62765,-0.097 0.19401,-0.102707 0.23965,-0.308122 0.0457,-0.205414 0.0457,-0.713244 v -2.818743 q 0,-0.502124 -0.0457,-0.707538 -0.0456,-0.211121 -0.23965,-0.308122 -0.18829,-0.097 -0.62765,-0.097 v -0.245357 q 0.9586,0.02282 1.4379,0.02282 0.4793,0 1.4379,-0.02282 v 0.245357 q -0.43936,0 -0.63336,0.097 -0.1883,0.097 -0.23395,0.308122 -0.0456,0.205414 -0.0456,0.707538 z"></path>
      <path id="path923" style="font-style:normal;font-variant:normal;font-weight:normal;font-stretch:normal;font-size:11.6858px;font-family:'Baskerville Small Caps SSi';-inkscape-font-specification:'Baskerville Small Caps SSi, Normal';font-variant-ligatures:normal;font-variant-caps:normal;font-variant-numeric:normal;font-variant-east-asian:normal;letter-spacing:-0.460375px;stroke-width:0.264583" d="m 131.36391,46.813976 v 1.951438 h -0.14265 l -0.21112,-0.479301 q -0.46218,0.279592 -0.94719,0.445065 -0.48501,0.165473 -1.07272,0.165473 -0.95289,0 -1.60337,-0.336652 -0.64478,-0.336651 -0.97002,-0.981424 -0.32524,-0.644774 -0.32524,-1.569139 0,-0.855893 0.3823,-1.517784 0.3823,-0.661891 1.07272,-1.021366 0.69042,-0.359476 1.58626,-0.359476 0.90154,0 1.77455,0.445065 l 0.15406,-0.29671 h 0.11412 l 0.13124,1.660434 h -0.1883 q -0.12553,-0.490713 -0.37659,-0.838776 -0.25106,-0.348063 -0.62766,-0.542066 -0.37659,-0.194002 -0.85589,-0.194002 -0.70183,0 -1.1469,0.382299 -0.44506,0.382299 -0.63336,0.98713 -0.18259,0.604832 -0.18259,1.306664 0,0.724657 0.17689,1.31237 0.17688,0.587714 0.61053,0.958601 0.43366,0.370887 1.14119,0.370887 0.55348,0 0.95861,-0.279591 0.40512,-0.279592 0.64477,-0.696127 0.24535,-0.422241 0.35947,-0.873012 z"></path>
      <path id="path925" style="font-style:normal;font-variant:normal;font-weight:normal;font-stretch:normal;font-size:11.6858px;font-family:'Baskerville Small Caps SSi';-inkscape-font-specification:'Baskerville Small Caps SSi, Normal';font-variant-ligatures:normal;font-variant-caps:normal;font-variant-numeric:normal;font-variant-east-asian:normal;letter-spacing:-0.460375px;stroke-width:0.264583" d="m 134.76076,43.11081 h 0.34236 l 1.79738,4.427823 q 0.194,0.485006 0.26818,0.639067 0.0799,0.154061 0.25106,0.256768 0.17118,0.097 0.49642,0.097 v 0.233945 q -0.87872,-0.02282 -1.31808,-0.02282 -0.43936,0 -1.29525,0.02282 v -0.233945 q 0.39941,0 0.58201,-0.04565 0.18829,-0.04565 0.18829,-0.222533 0,-0.165472 -0.097,-0.410828 l -0.40512,-1.07272 h -2.08268 l -0.14835,0.42224 q -0.14836,0.388006 -0.21112,0.576302 -0.0571,0.182591 -0.0571,0.342358 0,0.268179 0.20541,0.342357 0.21112,0.06847 0.55348,0.06847 v 0.233945 q -0.68471,-0.02282 -1.02137,-0.02282 -0.33094,0 -1.01566,0.02282 v -0.233945 q 0.39942,0 0.63337,-0.251062 0.23965,-0.251062 0.41082,-0.673303 0.17689,-0.427946 0.42795,-1.049896 z m -1.09554,3.355103 h 1.76314 l -0.85019,-2.162558 z"></path>
      <path id="path927" style="font-style:normal;font-variant:normal;font-weight:normal;font-stretch:normal;font-size:11.6858px;font-family:'Baskerville Small Caps SSi';-inkscape-font-specification:'Baskerville Small Caps SSi, Normal';font-variant-ligatures:normal;font-variant-caps:normal;font-variant-numeric:normal;font-variant-east-asian:normal;letter-spacing:-0.460375px;stroke-width:0.264583" d="m 140.1547,44.594359 v 2.721742 q 0,0.370887 0.0456,0.599125 0.0456,0.228238 0.18259,0.370887 0.13694,0.136943 0.41083,0.194003 0.27959,0.05135 0.73606,0.05135 0.64478,0 0.98143,-0.18259 0.34236,-0.188297 0.46789,-0.467889 0.12553,-0.285298 0.22253,-0.741774 h 0.22253 l -0.0571,1.626198 q -1.26672,-0.02282 -2.43073,-0.02282 -1.11267,0 -1.70038,0.0057 -0.58771,0.01141 -1.04419,0.01712 v -0.233945 q 0.43365,0 0.62195,-0.097 0.194,-0.102707 0.23965,-0.308122 0.0456,-0.205414 0.0456,-0.713244 v -2.818743 q 0,-0.502124 -0.0456,-0.707538 -0.0456,-0.211121 -0.23965,-0.308122 -0.1883,-0.097 -0.62195,-0.097 v -0.245357 q 0.9586,0.02282 1.4379,0.02282 0.48501,0 1.4322,-0.02282 v 0.245357 q -0.43366,0 -0.62766,0.097 -0.1883,0.097 -0.23394,0.308122 -0.0456,0.205414 -0.0456,0.707538 z"></path>
      <path id="path929" style="font-style:normal;font-variant:normal;font-weight:normal;font-stretch:normal;font-size:11.6858px;font-family:'Baskerville Small Caps SSi';-inkscape-font-specification:'Baskerville Small Caps SSi, Normal';font-variant-ligatures:normal;font-variant-caps:normal;font-variant-numeric:normal;font-variant-east-asian:normal;letter-spacing:-0.460375px;stroke-width:0.264583" d="m 68.736175,60.826065 v -2.305206 h 0.26818 q 0.199709,0.992836 0.730363,1.597668 0.53636,0.599125 1.477843,0.599125 0.462182,0 0.844481,-0.171178 0.382299,-0.171179 0.604832,-0.507831 0.222532,-0.342357 0.222532,-0.793128 0,-0.490712 -0.245356,-0.838775 -0.245356,-0.35377 -0.604832,-0.56489 -0.359475,-0.21112 -0.924365,-0.439359 -0.4793,-0.188296 -0.838775,-0.370887 -0.359475,-0.188296 -0.679009,-0.467888 -0.313828,-0.279592 -0.496418,-0.650479 -0.182591,-0.370888 -0.182591,-0.838776 0,-0.650479 0.308122,-1.135485 0.308121,-0.485007 0.833069,-0.736069 0.524949,-0.256768 1.169722,-0.256768 0.935777,0 1.768846,0.610537 l 0.26818,-0.467888 h 0.125531 l 0.06277,2.042733 H 73.17541 q -0.50783,-1.854436 -1.951437,-1.854436 -0.576302,0 -0.970013,0.348063 -0.393711,0.342357 -0.393711,0.901541 0,0.427947 0.216826,0.718951 0.222533,0.291003 0.513536,0.45077 0.291004,0.154061 0.821658,0.382299 0.56489,0.228239 0.987131,0.445065 0.422241,0.216826 0.781716,0.519242 0.359475,0.29671 0.582007,0.730363 0.222533,0.427946 0.222533,0.970012 0,0.730363 -0.399417,1.255311 -0.399417,0.519242 -1.038484,0.781716 -0.639068,0.256768 -1.358018,0.256768 -0.587714,0 -1.07272,-0.171179 -0.485006,-0.171179 -0.970013,-0.530654 l -0.279592,0.490712 z"></path>
      <path id="path931" style="font-style:normal;font-variant:normal;font-weight:normal;font-stretch:normal;font-size:11.6858px;font-family:'Baskerville Small Caps SSi';-inkscape-font-specification:'Baskerville Small Caps SSi, Normal';font-variant-ligatures:normal;font-variant-caps:normal;font-variant-numeric:normal;font-variant-east-asian:normal;letter-spacing:-0.460375px;stroke-width:0.264583" d="m 80.435194,58.149972 q 0,0.855893 -0.370887,1.512078 -0.365181,0.650479 -1.055602,1.015661 -0.690421,0.359475 -1.60908,0.359475 -0.924365,0 -1.626197,-0.359475 -0.696127,-0.365182 -1.061308,-1.015661 -0.365181,-0.656185 -0.365181,-1.512078 0,-0.8616 0.365181,-1.517785 0.370887,-0.656185 1.067014,-1.01566 0.696126,-0.365181 1.620491,-0.365181 0.918659,0 1.60908,0.365181 0.690421,0.359475 1.055602,1.01566 0.370887,0.656185 0.370887,1.517785 z m -1.203956,0 q 0,-0.718951 -0.182591,-1.318076 -0.182591,-0.604832 -0.59342,-0.975719 -0.405122,-0.370887 -1.067013,-0.370887 -0.947189,0 -1.392254,0.770304 -0.445065,0.764598 -0.445065,1.894378 0,1.124073 0.445065,1.888671 0.445065,0.764599 1.392254,0.764599 0.661891,0 1.067013,-0.365182 0.410829,-0.370887 0.59342,-0.964306 0.182591,-0.599126 0.182591,-1.323782 z"></path>
      <path id="path933" style="font-style:normal;font-variant:normal;font-weight:normal;font-stretch:normal;font-size:11.6858px;font-family:'Baskerville Small Caps SSi';-inkscape-font-specification:'Baskerville Small Caps SSi, Normal';font-variant-ligatures:normal;font-variant-caps:normal;font-variant-numeric:normal;font-variant-east-asian:normal;letter-spacing:-0.460375px;stroke-width:0.264583" d="m 86.314137,58.954512 v 1.951437 h -0.142649 l -0.21112,-0.479301 q -0.462183,0.279592 -0.947189,0.445065 -0.485006,0.165473 -1.07272,0.165473 -0.952895,0 -1.603374,-0.336652 -0.644773,-0.336651 -0.970012,-0.981424 -0.32524,-0.644773 -0.32524,-1.569138 0,-0.855894 0.382299,-1.517785 0.382299,-0.661891 1.07272,-1.021366 0.690421,-0.359475 1.586256,-0.359475 0.901541,0 1.774553,0.445064 l 0.15406,-0.29671 h 0.11412 l 0.131237,1.660434 H 86.068781 Q 85.94325,56.569422 85.692188,56.221358 85.441126,55.873295 85.064533,55.679292 84.687939,55.48529 84.208639,55.48529 q -0.701833,0 -1.146897,0.382299 -0.445065,0.382299 -0.633361,0.98713 -0.182591,0.604832 -0.182591,1.306665 0,0.724656 0.176885,1.31237 0.176884,0.587713 0.610537,0.9586 0.433653,0.370888 1.141191,0.370888 0.553478,0 0.958601,-0.279592 0.405123,-0.279592 0.644773,-0.696127 0.245356,-0.422241 0.359476,-0.873011 z"></path>
      <path id="path935" style="font-style:normal;font-variant:normal;font-weight:normal;font-stretch:normal;font-size:11.6858px;font-family:'Baskerville Small Caps SSi';-inkscape-font-specification:'Baskerville Small Caps SSi, Normal';font-variant-ligatures:normal;font-variant-caps:normal;font-variant-numeric:normal;font-variant-east-asian:normal;letter-spacing:-0.460375px;stroke-width:0.264583" d="m 89.014862,56.734894 v 2.818743 q 0,0.50783 0.04565,0.713245 0.04565,0.205414 0.233944,0.308121 0.194002,0.097 0.633361,0.097 v 0.233944 q -0.958601,-0.02282 -1.437901,-0.02282 -0.4793,0 -1.437901,0.02282 v -0.233944 q 0.439358,0 0.627655,-0.097 0.194003,-0.102707 0.23965,-0.308121 0.04565,-0.205415 0.04565,-0.713245 v -2.818743 q 0,-0.502124 -0.04565,-0.707538 -0.04565,-0.211121 -0.23965,-0.308122 -0.188297,-0.097 -0.627655,-0.097 v -0.245356 q 0.958601,0.02282 1.437901,0.02282 0.4793,0 1.437901,-0.02282 v 0.245356 q -0.439359,0 -0.633361,0.097 -0.188297,0.097 -0.233944,0.308122 -0.04565,0.205414 -0.04565,0.707538 z"></path>
      <path id="path937" style="font-style:normal;font-variant:normal;font-weight:normal;font-stretch:normal;font-size:11.6858px;font-family:'Baskerville Small Caps SSi';-inkscape-font-specification:'Baskerville Small Caps SSi, Normal';font-variant-ligatures:normal;font-variant-caps:normal;font-variant-numeric:normal;font-variant-east-asian:normal;letter-spacing:-0.460375px;stroke-width:0.264583" d="m 91.241992,59.553637 v -2.818743 q 0,-0.502124 -0.04565,-0.707538 -0.04565,-0.211121 -0.239651,-0.308122 -0.188296,-0.097 -0.627655,-0.097 v -0.245356 q 0.958601,0.02282 1.437901,0.02282 1.12978,0 3.286631,-0.02282 v 1.415077 h -0.199708 q -0.06847,-0.496418 -0.205414,-0.736068 -0.131237,-0.245357 -0.393711,-0.336652 -0.262474,-0.097 -0.747481,-0.097 h -1.004248 q -0.211121,0 -0.211121,0.154061 v 2.105498 q 0.553478,0 0.821658,-0.08559 0.273886,-0.08559 0.393711,-0.342357 0.125531,-0.256768 0.154061,-0.77601 h 0.233944 q -0.02282,0.810246 -0.02282,1.226781 0,0.393711 0.02282,1.238192 h -0.233944 q -0.02853,-0.45077 -0.148355,-0.661891 -0.119825,-0.21112 -0.399417,-0.279592 -0.273886,-0.07418 -0.821658,-0.07418 v 1.728905 q 0,0.45077 0.273886,0.633361 0.279592,0.182591 0.884424,0.182591 0.621949,0 0.9586,-0.07988 0.336652,-0.08559 0.542066,-0.359475 0.205415,-0.273886 0.291004,-0.83307 h 0.233944 l -0.07418,1.506373 q -2.38509,-0.02282 -3.634695,-0.02282 -0.4793,0 -1.437901,0.02282 v -0.233944 q 0.439359,0 0.627655,-0.097 0.194003,-0.102707 0.239651,-0.308121 0.04565,-0.205415 0.04565,-0.713245 z"></path>
      <path id="path939" style="font-style:normal;font-variant:normal;font-weight:normal;font-stretch:normal;font-size:11.6858px;font-family:'Baskerville Small Caps SSi';-inkscape-font-specification:'Baskerville Small Caps SSi, Normal';font-variant-ligatures:normal;font-variant-caps:normal;font-variant-numeric:normal;font-variant-east-asian:normal;letter-spacing:-0.460375px;stroke-width:0.264583" d="m 99.152258,55.844765 v 3.708872 q 0,0.50783 0.04565,0.713245 0.04565,0.205414 0.233944,0.308121 0.194003,0.097 0.627651,0.097 v 0.233944 q -0.958596,-0.02282 -1.437896,-0.02282 -0.479301,0 -1.437902,0.02282 v -0.233944 q 0.439359,0 0.627656,-0.097 0.194002,-0.102707 0.23965,-0.308121 0.04565,-0.205415 0.04565,-0.713245 v -3.708872 q 0,-0.097 -0.07988,-0.125531 -0.07988,-0.03424 -0.256768,-0.03424 h -0.667597 q -0.639067,0 -0.895835,0.26818 -0.251062,0.26818 -0.285298,0.8616 H 95.67733 v -1.437901 q 2.111204,0.02282 2.944274,0.02282 0.844481,0 2.944276,-0.02282 v 1.437901 h -0.23395 q -0.0342,-0.59342 -0.291,-0.8616 -0.25106,-0.26818 -0.88442,-0.26818 h -0.667601 q -0.171179,0 -0.256768,0.03424 -0.07988,0.02853 -0.07988,0.125531 z"></path>
      <path id="path941" style="font-style:normal;font-variant:normal;font-weight:normal;font-stretch:normal;font-size:11.6858px;font-family:'Baskerville Small Caps SSi';-inkscape-font-specification:'Baskerville Small Caps SSi, Normal';font-variant-ligatures:normal;font-variant-caps:normal;font-variant-numeric:normal;font-variant-east-asian:normal;letter-spacing:-0.460375px;stroke-width:0.264583" d="m 101.6761,55.622233 v -0.245356 q 0.89013,0.02282 1.3466,0.02282 0.45078,0 1.3409,-0.02282 v 0.245356 q -0.69042,0 -0.69042,0.319533 0.006,0.125531 0.0514,0.251062 0.0456,0.119826 0.097,0.228239 0.0571,0.108413 0.20541,0.370887 l 0.91866,1.557726 1.00996,-1.52349 q 0.0856,-0.136943 0.17688,-0.279592 0.0913,-0.148355 0.13694,-0.262474 0.0456,-0.114119 0.0456,-0.23965 0,-0.148355 -0.0628,-0.228239 -0.0628,-0.07988 -0.15406,-0.108413 -0.0913,-0.03424 -0.22824,-0.05135 -0.13695,-0.01712 -0.25677,-0.03424 v -0.245356 q 0.68471,0.02282 1.01566,0.02282 0.32524,0 1.03278,-0.02282 v 0.245356 q -0.3766,0.03994 -0.5763,0.176884 -0.19971,0.131237 -0.41654,0.445065 l -1.54631,2.322325 v 0.98713 q 0,0.50783 0.0456,0.713245 0.0457,0.205414 0.23395,0.308121 0.194,0.097 0.63336,0.097 v 0.233944 q -0.9586,-0.02282 -1.4379,-0.02282 -0.4793,0 -1.4379,0.02282 v -0.233944 q 0.43936,0 0.62765,-0.097 0.19401,-0.102707 0.23965,-0.308121 0.0456,-0.205415 0.0456,-0.713245 v -0.810246 l -1.4379,-2.442149 q -0.20542,-0.342358 -0.27959,-0.433653 -0.0742,-0.0913 -0.19401,-0.131237 -0.11982,-0.04565 -0.485,-0.114119 z"></path>
    </g>
    <g transform="translate(-7.7675225,-61.524074)" id="g879">
      <rect style="fill:#000000;fill-opacity:1;stroke-width:1;stroke-linecap:round;stroke-linejoin:bevel" id="rect871" width="0.53730667" height="33.866669" x="72.924446" y="89.566032"></rect>
      <rect y="89.566032" x="69.648369" height="33.866669" width="1.8268578" id="rect875" style="fill:#000000;fill-opacity:1;stroke-width:0.999991;stroke-linecap:round;stroke-linejoin:bevel"></rect>
    </g>
  </g>
</svg>
